[Header]
FileType HTR
DataType HTRS
FileVersion 1
NumSegments 64
NumFrames 3
DataFrameRate 24
EulerRotationOrder ZYX
CalibrationUnits mm
RotationUnits Degrees
GlobalAxisofGravity Y
BoneLengthAxis Y
ScaleFactor 1.0
[SegmentNames&Hierarchy]
Hips	GLOBAL
Spine	Hips
Spine1	Spine
Spine2	Spine1
Neck	Spine2
Head	Neck
LeftEye	Head
RightEye	Head
LeftShoulder	Spine2
LeftArm	LeftShoulder
LeftForeArm	LeftArm
LeftHand	LeftForeArm
LeftHandThumb1	LeftHand
LeftHandThumb2	LeftHandThumb1
LeftHandThumb3	LeftHandThumb2
LeftHandThumb4	LeftHandThumb3
LeftHandIndex1	LeftHand
LeftHandIndex2	LeftHandIndex1
LeftHandIndex3	LeftHandIndex2
LeftHandIndex4	LeftHandIndex3
LeftHandMiddle1	LeftHand
LeftHandMiddle2	LeftHandMiddle1
LeftHandMiddle3	LeftHandMiddle2
LeftHandMiddle4	LeftHandMiddle3
LeftHandRing1	LeftHand
LeftHandRing2	LeftHandRing1
LeftHandRing3	LeftHandRing2
LeftHandRing4	LeftHandRing3
LeftHandPinky1	LeftHand
LeftHandPinky2	LeftHandPinky1
LeftHandPinky3	LeftHandPinky2
LeftHandPinky4	LeftHandPinky3
RightShoulder	Spine2
RightArm	RightShoulder
RightForeArm	RightArm
RightHand	RightForeArm
RightHandPinky1	RightHand
RightHandPinky2	RightHandPinky1
RightHandPinky3	RightHandPinky2
RightHandPinky4	RightHandPinky3
RightHandRing1	RightHand
RightHandRing2	RightHandRing1
RightHandRing3	RightHandRing2
RightHandRing4	RightHandRing3
RightHandMiddle1	RightHand
RightHandMiddle2	RightHandMiddle1
RightHandMiddle3	RightHandMiddle2
RightHandMiddle4	RightHandMiddle3
RightHandIndex1	RightHand
RightHandIndex2	RightHandIndex1
RightHandIndex3	RightHandIndex2
RightHandIndex4	RightHandIndex3
RightHandThumb1	RightHand
RightHandThumb2	RightHandThumb1
RightHandThumb3	RightHandThumb2
RightHandThumb4	RightHandThumb3
LeftUpLeg	Hips
LeftLeg	LeftUpLeg
LeftFoot	LeftLeg
LeftToeBase	LeftFoot
RightUpLeg	Hips
RightLeg	RightUpLeg
RightFoot	RightLeg
RightToeBase	RightFoot
[BasePosition]
Hips	0	0	0	0	0	0	1
Spine	0	0	0	0	0	0	1
Spine1	0	0	0	0	0	0	1
Spine2	0	0	0	0	0	0	1
Neck	0	0	0	0	0	0	1
Head	0	0	0	0	0	0	1
LeftEye	0	0	0	0	0	0	1
RightEye	0	0	0	0	0	0	1
LeftShoulder	0	0	0	0	0	0	1
LeftArm	0	0	0	0	0	0	1
LeftForeArm	0	0	0	0	0	0	1
LeftHand	0	0	0	0	0	0	1
LeftHandThumb1	0	0	0	0	0	0	1
LeftHandThumb2	0	0	0	0	0	0	1
LeftHandThumb3	0	0	0	0	0	0	1
LeftHandThumb4	0	0	0	0	0	0	1
LeftHandIndex1	0	0	0	0	0	0	1
LeftHandIndex2	0	0	0	0	0	0	1
LeftHandIndex3	0	0	0	0	0	0	1
LeftHandIndex4	0	0	0	0	0	0	1
LeftHandMiddle1	0	0	0	0	0	0	1
LeftHandMiddle2	0	0	0	0	0	0	1
LeftHandMiddle3	0	0	0	0	0	0	1
LeftHandMiddle4	0	0	0	0	0	0	1
LeftHandRing1	0	0	0	0	0	0	1
LeftHandRing2	0	0	0	0	0	0	1
LeftHandRing3	0	0	0	0	0	0	1
LeftHandRing4	0	0	0	0	0	0	1
LeftHandPinky1	0	0	0	0	0	0	1
LeftHandPinky2	0	0	0	0	0	0	1
LeftHandPinky3	0	0	0	0	0	0	1
LeftHandPinky4	0	0	0	0	0	0	1
RightShoulder	0	0	0	0	0	0	1
RightArm	0	0	0	0	0	0	1
RightForeArm	0	0	0	0	0	0	1
RightHand	0	0	0	0	0	0	1
RightHandPinky1	0	0	0	0	0	0	1
RightHandPinky2	0	0	0	0	0	0	1
RightHandPinky3	0	0	0	0	0	0	1
RightHandPinky4	0	0	0	0	0	0	1
RightHandRing1	0	0	0	0	0	0	1
RightHandRing2	0	0	0	0	0	0	1
RightHandRing3	0	0	0	0	0	0	1
RightHandRing4	0	0	0	0	0	0	1
RightHandMiddle1	0	0	0	0	0	0	1
RightHandMiddle2	0	0	0	0	0	0	1
RightHandMiddle3	0	0	0	0	0	0	1
RightHandMiddle4	0	0	0	0	0	0	1
RightHandIndex1	0	0	0	0	0	0	1
RightHandIndex2	0	0	0	0	0	0	1
RightHandIndex3	0	0	0	0	0	0	1
RightHandIndex4	0	0	0	0	0	0	1
RightHandThumb1	0	0	0	0	0	0	1
RightHandThumb2	0	0	0	0	0	0	1
RightHandThumb3	0	0	0	0	0	0	1
RightHandThumb4	0	0	0	0	0	0	1
LeftUpLeg	0	0	0	0	0	0	1
LeftLeg	0	0	0	0	0	0	1
LeftFoot	0	0	0	0	0	0	1
LeftToeBase	0	0	0	0	0	0	1
RightUpLeg	0	0	0	0	0	0	1
RightLeg	0	0	0	0	0	0	1
RightFoot	0	0	0	0	0	0	1
RightToeBase	0	0	0	0	0	0	1
[Hips]
16	37.6951561	1007.460266	1085.626953	0.8788345456	4.372352123	1.828923583	1.0
17	33.21891403	987.6530762	1159.779419	0.6877553463	6.90568924	1.691728115	1.0
18	28.72994232	977.0323486	1232.640625	0.2491246164	8.51338768	1.075681925	1.0
[Spine]
16	0	101.8159943	1.315000057	1.814028621	-2.061935902	-0.003613587702	1.0
17	0	101.8159943	1.315000057	1.332534432	-2.883296967	-1.012873888	1.0
18	0	101.8159943	1.315000057	1.58376348	-2.938415766	-0.6014321446	1.0
[Spine1]
16	0	100.8349991	-10.00800037	2.759887218	-3.642811775	0.1614911705	1.0
17	0	100.8349991	-10.00800037	3.293335199	-4.328392506	0.7367460132	1.0
18	0	100.8349991	-10.00800037	3.019523859	-4.768054962	0.7043600082	1.0
[Spine2]
16	0	91	-13.73399925	-1.755455256	-3.6848948	-0.2533722222	1.0
17	0	91	-13.73399925	-1.18142271	-4.365887165	0.2931708097	1.0
18	0	91	-13.73399925	-1.455797315	-4.801860809	0.2870204747	1.0
[Neck]
16	0	166.7169952	-25.16200066	-4.841141224	0.05234857276	-1.959280849	1.0
17	0	166.7169952	-25.16200066	-5.586546898	-0.1273311973	-1.697530508	1.0
18	0	166.7169952	-25.16200066	-5.359072685	-0.2167148292	-1.698227167	1.0
[Head]
16	0	96.17900085	16.84999847	-2.094280005	1.341685057	-0.8869347572	1.0
17	0	96.17900085	16.84999847	-2.471007824	0.9437271953	-0.6672852039	1.0
18	0	96.17900085	16.84999847	-2.053787231	0.4457787573	-0.3047236502	1.0
[LeftEye]
16	30.6760006	64.09500122	92.83599854	0	0	0	1.0
17	30.6760006	64.09500122	92.83599854	0	0	0	1.0
18	30.6760006	64.09500122	92.83599854	0	0	0	1.0
[RightEye]
16	-30.6760006	64.09500122	92.83499908	0	0	0	1.0
17	-30.6760006	64.09500122	92.83499908	0	0	0	1.0
18	-30.6760006	64.09500122	92.83499908	0	0	0	1.0
[LeftShoulder]
16	45.70400238	109.4599991	-26.28000069	7.787779331	-23.7901783	-0.4279070199	1.0
17	45.70400238	109.4599991	-26.28000069	7.490771294	-26.02789688	1.778834343	1.0
18	45.70400238	109.4599991	-26.28000069	7.533277512	-26.44608498	1.53049767	1.0
[LeftArm]
16	105.923996	-5.24600029	-22.32099915	1.69533205	1.120039582	-65.79551697	1.0
17	105.923996	-5.24600029	-22.32099915	-1.822864413	2.642131329	-64.07456207	1.0
18	105.923996	-5.24600029	-22.32099915	-4.234270573	4.256802082	-61.77930069	1.0
[LeftForeArm]
16	278.414978	-0.0009999999311	0	-9.53802919e-06	-42.4764328	-0.0001991130121	1.0
17	278.414978	-0.0009999999311	0	9.725608834e-06	-52.42519379	-0.0002025448339	1.0
18	278.414978	-0.0009999999311	0	-1.244491273e-06	-59.37181473	-0.0002059549151	1.0
[LeftHand]
16	283.2879944	0	0	21.39527893	-12.55650425	4.938135624	1.0
17	283.2879944	0	0	17.74400902	-12.25215721	5.099083424	1.0
18	283.2879944	0	0	16.3861084	-12.87342358	7.828949451	1.0
[LeftHandThumb1]
16	24.6609993	-15.75	26.8239994	27.00134659	-7.227890491	29.49256897	1.0
17	24.6609993	-15.75	26.8239994	27.40762329	-6.658955097	28.56802368	1.0
18	24.6609993	-15.75	26.8239994	27.82235909	-6.049834251	27.6367321	1.0
[LeftHandThumb2]
16	32.29800034	-18.64699936	18.64699936	-11.56725979	23.10852242	-18.2279377	1.0
17	32.29800034	-18.64699936	18.64699936	-11.59769344	21.92021751	-17.08754158	1.0
18	32.29800034	-18.64699936	18.64699936	-12.22090054	20.80416679	-18.57590294	1.0
[LeftHandThumb3]
16	26.52600098	-15.31499958	15.31499958	6.983020306	-16.8096981	5.149693012	1.0
17	26.52600098	-15.31499958	15.31499958	6.866180897	-17.76306725	3.655237436	1.0
18	26.52600098	-15.31499958	15.31499958	6.730031967	-18.53092003	6.185919762	1.0
[LeftHandThumb4]
16	19.54599953	-11.28499985	11.28499985	0	0	0	1.0
17	19.54599953	-11.28499985	11.28499985	0	0	0	1.0
18	19.54599953	-11.28499985	11.28499985	0	0	0	1.0
[LeftHandIndex1]
16	91.09299469	-5.170999527	22.60099792	7.024301052	2.691868067	-3.705506563	1.0
17	91.09299469	-5.170999527	22.60099792	5.91065979	3.115462542	-5.461306572	1.0
18	91.09299469	-5.170999527	22.60099792	5.14876461	3.0541327	-3.672248363	1.0
[LeftHandIndex2]
16	36.76399994	0	0	-0.4543542862	2.421242714	-16.73559189	1.0
17	36.76399994	0	0	-0.456330955	2.425544024	-16.78185844	1.0
18	36.76399994	0	0	-0.4569892883	2.426986694	-16.79758644	1.0
[LeftHandIndex3]
16	28.83100128	0	0	-0.0316395089	0.1664153337	-3.765714169	1.0
17	28.83100128	0	0	-0.03193651885	0.1710209846	-3.811589479	1.0
18	28.83100128	0	0	-0.03203529119	0.1726529747	-3.827773809	1.0
[LeftHandIndex4]
16	23.92700005	0	0	0	0	0	1.0
17	23.92700005	0	0	0	0	0	1.0
18	23.92700005	0	0	0	0	0	1.0
[LeftHandMiddle1]
16	95.33399963	0	0	-1.342679858	6.666162014	-14.55414295	1.0
17	95.33399963	0	0	-1.557767391	6.44521904	-16.38715363	1.0
18	95.33399963	0	0	-1.525579572	6.215812683	-16.14395905	1.0
[LeftHandMiddle2]
16	36.98199844	0	0	-1.007657647	3.313888788	-26.8913002	1.0
17	36.98199844	0	0	-1.016532063	3.325998545	-27.03959084	1.0
18	36.98199844	0	0	-1.022923946	3.334654808	-27.14572144	1.0
[LeftHandMiddle3]
16	29.50900078	0	0	-0.2398339063	1.821499944	-15.76218605	1.0
17	29.50900078	0	0	-0.2440871596	1.835479617	-15.90919304	1.0
18	29.50900078	0	0	-0.2471723258	1.845539451	-16.01470757	1.0
[LeftHandMiddle4]
16	28.3390007	0	0	0	0	0	1.0
17	28.3390007	0	0	0	0	0	1.0
18	28.3390007	0	0	0	0	0	1.0
[LeftHandRing1]
16	91.04499817	-0.4390000105	-18.65100098	-3.481477499	6.950147629	-32.17625427	1.0
17	91.04499817	-0.4390000105	-18.65100098	-3.677872419	6.764851093	-33.70724869	1.0
18	91.04499817	-0.4390000105	-18.65100098	-3.65049696	6.722705841	-33.52105331	1.0
[LeftHandRing2]
16	31.54000092	0	0	-0.180213362	2.005322218	-16.92785263	1.0
17	31.54000092	0	0	-0.1875911802	2.033111334	-17.21775627	1.0
18	31.54000092	0	0	-0.1916715503	2.048172712	-17.37495232	1.0
[LeftHandRing3]
16	29.37700081	0	0	0.03108123504	1.218218327	-12.34038639	1.0
17	29.37700081	0	0	0.02764060535	1.24681139	-12.62966347	1.0
18	29.37700081	0	0	0.0257193055	1.262339115	-12.78694916	1.0
[LeftHandRing4]
16	26.47500038	0	0	0	0	0	1.0
17	26.47500038	0	0	0	0	0	1.0
18	26.47500038	0	0	0	0	0	1.0
[LeftHandPinky1]
16	80.77799988	-4.887000084	-38.06099701	-3.807544947	12.21093273	-29.92525291	1.0
17	80.77799988	-4.887000084	-38.06099701	-4.02535677	12.12707329	-31.53011894	1.0
18	80.77799988	-4.887000084	-38.06099701	-4.030408382	11.80789471	-31.55205154	1.0
[LeftHandPinky2]
16	36	0	0	-0.872523427	2.562336683	-29.06006813	1.0
17	36	0	0	-0.8730067611	2.56308341	-29.06894302	1.0
18	36	0	0	-0.8789457679	2.572507143	-29.1803894	1.0
[LeftHandPinky3]
16	21.14200211	0	0	-0.1037432551	1.520586967	-6.675151348	1.0
17	21.14200211	0	0	-0.1039319187	1.521459818	-6.684010983	1.0
18	21.14200211	0	0	-0.1061674878	1.532383084	-6.795244217	1.0
[LeftHandPinky4]
16	19.75699997	0	0	0	0	0	1.0
17	19.75699997	0	0	0	0	0	1.0
18	19.75699997	0	0	0	0	0	1.0
[RightShoulder]
16	-45.70000076	109.4620056	-26.28000069	-0.4945709109	3.732719421	5.585893631	1.0
17	-45.70000076	109.4620056	-26.28000069	-0.6785572767	1.657784462	6.038460732	1.0
18	-45.70000076	109.4620056	-26.28000069	-0.8140100241	0.2213591188	6.094866753	1.0
[RightArm]
16	-105.9280014	-5.248000145	-22.32099915	0.7686379552	-15.42950153	72.6709671	1.0
17	-105.9280014	-5.248000145	-22.32099915	-1.046136737	-23.1076088	72.90757751	1.0
18	-105.9280014	-5.248000145	-22.32099915	-3.426791668	-29.70805168	74.65634918	1.0
[RightForeArm]
16	-278.414978	0	0	-7.192910743e-06	34.71138382	-2.254846004e-05	1.0
17	-278.414978	0	0	1.746008274e-05	36.01077652	2.951668102e-05	1.0
18	-278.414978	0	0	-7.44287405e-08	35.45133591	7.865855878e-06	1.0
[RightHand]
16	-283.2879944	0	0.0009999999311	40.58934784	21.8008461	3.30628109	1.0
17	-283.2879944	0	0.0009999999311	38.95580673	13.68858147	5.711341858	1.0
18	-283.2879944	0	0.0009999999311	36.09976578	6.604810238	7.165313244	1.0
[RightHandPinky1]
16	-80.76699829	-4.885000229	-38.06000137	-5.037395	-10.2237339	40.65732956	1.0
17	-80.76699829	-4.885000229	-38.06000137	-4.916439533	-10.34431839	39.68040085	1.0
18	-80.76699829	-4.885000229	-38.06000137	-4.876817703	-10.43488979	39.30142975	1.0
[RightHandPinky2]
16	-36	0	0.0009999999311	-2.255912066	-4.069540024	49.6951828	1.0
17	-36	0	0.0009999999311	-2.302026987	-4.104081154	50.27307129	1.0
18	-36	0	0.0009999999311	-2.323375463	-4.119848251	50.53932571	1.0
[RightHandPinky3]
16	-21.14200211	0	0	-2.097578287	-1.656222939	43.89007568	1.0
17	-21.14200211	0	0	-2.141154289	-1.693997979	44.46596909	1.0
18	-21.14200211	0	0	-2.161346674	-1.711237431	44.73126984	1.0
[RightHandPinky4]
16	-19.75699997	0	0	0	0	0	1.0
17	-19.75699997	0	0	0	0	0	1.0
18	-19.75699997	0	0	0	0	0	1.0
[RightHandRing1]
16	-91.03599548	-0.4390000105	-18.65100098	-3.848185062	-8.402795792	34.34041214	1.0
17	-91.03599548	-0.4390000105	-18.65100098	-3.650288343	-8.588279724	32.806427	1.0
18	-91.03599548	-0.4390000105	-18.65100098	-3.563920498	-8.686915398	32.12622833	1.0
[RightHandRing2]
16	-31.54000092	0	0	-0.3958711922	-2.660409689	23.89390373	1.0
17	-31.54000092	0	0	-0.404879868	-2.68286252	24.13811874	1.0
18	-31.54000092	0	0	-0.4099245071	-2.69533658	24.27404022	1.0
[RightHandRing3]
16	-29.37700081	0	0	-0.1961010993	-0.1521099359	20.31548309	1.0
17	-29.37700081	0	0	-0.2022946477	-0.1755552292	20.55892372	1.0
18	-29.37700081	0	0	-0.2057840079	-0.1885689795	20.69429588	1.0
[RightHandRing4]
16	-26.47500038	0	0	0	0	0	1.0
17	-26.47500038	0	0	0	0	0	1.0
18	-26.47500038	0	0	0	0	0	1.0
[RightHandMiddle1]
16	-95.32500458	0	0	-1.28982687	-4.667329311	14.33301067	1.0
17	-95.32500458	0	0	-1.124805093	-4.91812849	12.88332748	1.0
18	-95.32500458	0	0	-1.037250042	-5.285927296	12.07475662	1.0
[RightHandMiddle2]
16	-36.98199844	0	0	-1.753300905	-4.149356365	37.98663712	1.0
17	-36.98199844	0	0	-1.756093979	-4.151961803	38.0243454	1.0
18	-36.98199844	0	0	-1.757893205	-4.15361166	38.04853821	1.0
[RightHandMiddle3]
16	-29.50900078	0	0	-0.8759991527	-3.039414883	31.0019989	1.0
17	-29.50900078	0	0	-0.8781561852	-3.042873383	31.04302216	1.0
18	-29.50900078	0	0	-0.8796232939	-3.045175791	31.07054138	1.0
[RightHandMiddle4]
16	-28.3390007	0	0.0009999999311	0	0	0	1.0
17	-28.3390007	0	0.0009999999311	0	0	0	1.0
18	-28.3390007	0	0.0009999999311	0	0	0	1.0
[RightHandIndex1]
16	-91.08300018	-5.167999744	22.60099792	0.07380586863	1.68061626	3.073184013	1.0
17	-91.08300018	-5.167999744	22.60099792	0.2452095151	2.157103539	1.584806085	1.0
18	-91.08300018	-5.167999744	22.60099792	0.3343820274	2.402667046	0.8005793691	1.0
[RightHandIndex2]
16	-36.76399994	0	0	-0.9871870875	-3.350094557	27.29027748	1.0
17	-36.76399994	0	0	-0.9939635396	-3.359702587	27.40606308	1.0
18	-36.76399994	0	0	-0.9995391965	-3.367567539	27.5009079	1.0
[RightHandIndex3]
16	-28.83100128	0	0	-0.352108568	-0.5561401248	17.96793175	1.0
17	-28.83100128	0	0	-0.3557204902	-0.5671648383	18.08337975	1.0
18	-28.83100128	0	0	-0.3586710989	-0.5762140155	18.17793274	1.0
[RightHandIndex4]
16	-23.92700005	0	0	0	0	0	1.0
17	-23.92700005	0	0	0	0	0	1.0
18	-23.92700005	0	0	0	0	0	1.0
[RightHandThumb1]
16	-24.64799881	-15.72700024	26.82600021	19.23417091	-5.446928501	-15.92867374	1.0
17	-24.64799881	-15.72700024	26.82600021	19.62851524	-6.925812244	-16.83011627	1.0
18	-24.64799881	-15.72700024	26.82600021	19.94398308	-7.725400925	-17.24429321	1.0
[RightHandThumb2]
16	-32.29800034	-18.64699936	18.64699936	5.400326729	0.5917385221	-16.16235161	1.0
17	-32.29800034	-18.64699936	18.64699936	5.656784534	1.687339544	-16.26615524	1.0
18	-32.29800034	-18.64699936	18.64699936	5.883161068	2.15864253	-16.33971214	1.0
[RightHandThumb3]
16	-26.52600098	-15.31399918	15.31399918	-12.4161644	8.482376099	7.434612274	1.0
17	-26.52600098	-15.31399918	15.31399918	-12.37410927	8.272913933	7.510191917	1.0
18	-26.52600098	-15.31399918	15.31399918	-12.34846592	8.14494133	7.556879044	1.0
[RightHandThumb4]
16	-19.54599953	-11.28499985	11.28499985	0	0	0	1.0
17	-19.54599953	-11.28499985	11.28499985	0	0	0	1.0
18	-19.54599953	-11.28499985	11.28499985	0	0	0	1.0
[LeftUpLeg]
16	82.07800293	-67.51699829	-15.99599934	2.217616558	10.30583858	-1.044651508	1.0
17	82.07800293	-67.51699829	-15.99599934	4.679655075	10.16696835	0.6489244103	1.0
18	82.07800293	-67.51699829	-15.99599934	7.679163933	9.77918148	1.995630503	1.0
[LeftLeg]
16	0	-443.7049866	2.845999956	19.68162346	-6.460604191	-2.864285946	1.0
17	0	-443.7049866	2.845999956	24.22607613	-6.820957184	-1.967761278	1.0
18	0	-443.7049866	2.845999956	26.41576385	-7.750491619	0.2099550664	1.0
[LeftFoot]
16	0	-444.2789917	-29.8219986	-15.35849953	-8.744081497	6.044883728	1.0
17	0	-444.2789917	-29.8219986	-18.29394913	-10.45274734	6.02291441	1.0
18	0	-444.2789917	-29.8219986	-13.85693455	-11.54961014	4.971475601	1.0
[LeftToeBase]
16	0	-87.28699493	107.1060028	-10.08583546	-9.196316455e-07	8.361456594e-07	1.0
17	0	-87.28699493	107.1060028	-14.83541965	-7.055368201e-07	-2.095254956e-07	1.0
18	0	-87.28699493	107.1060028	-21.27694893	-1.844445933e-06	5.605912747e-07	1.0
[RightUpLeg]
16	-82.07800293	-67.51699829	-15.99599934	-37.34328461	-9.658510208	4.494008064	1.0
17	-82.07800293	-67.51699829	-15.99599934	-40.27931976	-11.4536438	5.144230366	1.0
18	-82.07800293	-67.51699829	-15.99599934	-39.2816925	-11.50726223	5.408827305	1.0
[RightLeg]
16	0	-443.7049866	2.861999989	17.85825729	10.13297272	-1.246520758	1.0
17	0	-443.7049866	2.861999989	20.15992355	7.867242336	-0.9138106704	1.0
18	0	-443.7049866	2.861999989	24.64189911	5.176641941	-1.184241533	1.0
[RightFoot]
16	0	-444.2770081	-29.83799934	-1.768683314	-11.95835018	7.581650734	1.0
17	0	-444.2770081	-29.83799934	-10.71070862	-6.157564163	8.953193665	1.0
18	0	-444.2770081	-29.83799934	-14.18399334	-2.267015457	9.982275963	1.0
[RightToeBase]
16	0	-87.28699493	107.1060028	-4.950946808	5.262468221e-07	3.856506737e-06	1.0
17	0	-87.28699493	107.1060028	-5.769791603	-7.402197184e-07	6.283782113e-06	1.0
18	0	-87.28699493	107.1060028	-8.625053406	3.511132491e-06	-5.471834356e-06	1.0
[EndOfFile]
